<svg xmlns="http://www.w3.org/2000/svg" viewBox="0 0 500 500" xml:space="preserve"><path fill="none" d="M303 501H1V1h500v500H303m55-393-7-2c-12 1-22-2-30-11-3-2-6-3-10 1l11 10-6 1h-18l-27 3-32 4c-21 4-39 13-56 26l-4 1-23-3h-3v2l19 7-4 3-25 9c-18 5-35 13-50 26l-7 7-18 25c-8 10-15 20-16 34l-31 9c-4 1-7 2-6 7l-1 1c-4 4-8 8-5 15 2 4 4 6 8 4l15-7 22-8 2 9c5 16 15 28 33 31l33 3h16l13-1c34 1 66-7 100-13v3l-9 39-11 26-20 36-3 11 11-2c2 4 4 4 8 2 8-6 15-14 19-23l14-42 19-51 1 2v16c-1 12-4 23-10 34l-1 4c2 1 4 2 6 1 2 0 3-2 4-4 6-12 10-24 10-37v-17c21 0 41-1 60-5 20-5 37-16 55-26 1 15-3 29-6 43-4 14-6 28-8 43-1 4 3 6 8 4l5-4c6 3 7 3 11-3l4-8c7-17 6-35 9-53l1-32c0-2 2-5 4-6l31-13c16-7 29-16 31-36 2-13-5-28-14-34l-11-12-12-24c-7-15-19-27-32-37-3-2-7-3-11-1l4 7-7-1c-12-4-25-4-37-2-1 1-3 0-4-1l-15-11c-2-2-6-4-9 0l10 8c6 7 14 9 23 8 10-2 20-2 30 1 14 5 25 12 32 26 4 8 3 17 3 26l2 5c3 1 7 2 9-2l3-4c3 4 6 10 10 13 6 5 7 11 5 18l-5 19c-1 5 1 8 6 10 9-10 7-22 7-34 9 14 3 36-10 45-12 8-26 12-39 18v-13c0-2-2-5-4-6h-11c-4-1-6 2-6 5l-5 17c-1 7-2 12-9 15l-23 13c-14 8-28 15-44 16l-35 3c-4 0-9 0-8-6l-1-5v-12c3-6 2-8-4-8-4 0-7 0-9-4s-6-3-8 0l-2 6c0 3-1 4-4 4-5-1-6 3-6 7l-1 19-12 1-56 10c-11 2-22 3-34 3l-52-2-13-2c-16-7-20-21-20-36l45-12 47-16 27-7c16-5 31-12 46-16 30-9 61-16 90-26l78-32 3 5c3 6 8 10 14 12 2 1 6 0 7-1 2-1 1-5 0-7 0-2-2-3-3-5l-7-12-5-7-2-3 3-20c1-5-2-8-9-7l-3 33-5 2-54 17-64 20-47 15-26 11-39 9-50 15-29 9-19 3c1-5 1-10 4-14l17-26c9-12 18-23 31-30 11-6 23-10 35-15 15-6 30-11 43-21l26-16c12-6 26-9 39-10l34-4 33-1h31c2 0 4 0 2-4m109 86c0-6-5-5-7-6l-5 1c-1 3-3 7-2 8 2 2 6 3 8 3 3 0 6-2 6-6m-15-15c-1 5 4 4 7 5 3 0 7-1 7-5l-6-5c-3 0-8-2-8 5z"/><path fill="#06548C" d="M64 269c1 15 5 29 21 36l13 2 52 2c12 0 23-1 34-3l56-10 12-1 1-19c0-4 1-8 6-7 3 0 4-1 4-4l2-6c2-3 6-4 8 0s5 4 9 4c6 0 7 2 4 8v12l1 5c-1 6 4 6 8 6l35-3c16-1 30-8 44-16l23-13c7-3 8-8 9-15l5-17c0-3 2-6 6-5h11c2 1 4 4 4 6v13c13-6 27-10 39-18 13-9 19-31 10-45 0 12 2 24-7 34-5-2-7-5-6-10l5-19c2-7 1-13-5-18-4-3-7-9-10-13l-3 4c-2 4-6 3-9 2l-2-5c0-9 1-18-3-26-7-14-18-21-32-26-10-3-20-3-30-1-9 1-17-1-23-8l-10-8c3-4 7-2 9 0l15 11c1 1 3 2 4 1 12-2 25-2 37 2l7 1-4-7c4-2 8-1 11 1 13 10 25 22 32 37l12 24 11 12c9 6 16 21 14 34-2 20-15 29-31 36l-31 13c-2 1-4 4-4 6l-1 32c-3 18-2 36-9 53l-4 8c-4 6-5 6-11 3l-5 4c-5 2-9 0-8-4 2-15 4-29 8-43 3-14 7-28 6-43-18 10-35 21-55 26-19 4-39 5-60 5v17c0 13-4 25-10 37-1 2-2 4-4 4-2 1-4 0-6-1l1-4c6-11 9-22 10-34v-16l-1-2-19 51-14 42c-4 9-11 17-19 23-4 2-6 2-8-2l-11 2 3-11 20-36 11-26 9-39v-3c-34 6-66 14-101 13h-28l-33-2c-18-3-28-15-33-31l-3-9 11-3z"/><path fill="#D92329" d="m65 269-12 3-21 8-15 7c-4 2-6 0-8-4-3-7 1-11 5-15l1-1c-1-5 2-6 6-7a1159 1159 0 0 1 42-10l19-4 29-9 50-15 39-9 26-11 47-15 64-20 54-17 5-2 2 11c-26 11-51 23-78 33-29 10-60 17-90 26-15 4-30 11-46 16l-27 7-47 16-45 12z"/><path fill="#09568D" d="m63 249-10 2c0-14 7-24 15-34l18-25 7-7c15-13 32-21 50-26l25-9 4-3-19-7v-2h3l23 3 4-1c17-13 35-22 56-26l32-4 27-3h18l6-1-11-10c4-4 7-3 10-1 8 9 18 12 30 11l7 3-6 2-28 1-32 1-34 4c-13 1-27 4-39 10l-26 16c-13 10-28 15-43 21-12 5-24 9-35 15-13 7-22 18-31 30l-17 26c-3 4-3 9-4 14z"/><path fill="#08558C" d="m398 159-1-11 2-33c7-1 10 2 9 7l-3 20 2 3 5 7 7 12c1 2 3 3 3 5 1 2 2 6 0 7-1 1-5 2-7 1-6-2-11-6-14-12l-3-6z"/><path fill="#0A578D" d="M467 194c0 4-3 6-6 6-2 0-6-1-8-3-1-1 1-5 2-8l5-1c2 1 7 0 7 6z"/><path fill="#09568D" d="M452 178c0-6 5-4 8-4l6 5c0 4-4 5-7 5-3-1-8 0-7-6z"/><path fill="#5988A9" d="m325 112 27-1 6-2c2 3 0 3-2 3h-31z"/></svg>