<svg xmlns="http://www.w3.org/2000/svg" width="296.44" height="284.48" viewBox="0 0 78.43 75.27">
  <path d="M19.47 74.62c-.73-.38-1.36-.72-1.42-.77-.05-.04 4.7-6.76 10.54-14.92L39.22 44.1l10.56 14.7a749.85 749.85 0 0 1 10.57 14.9c0 .1-.54.46-1.2.78l-1.2.58-1.02-.68c-1.67-1.1-3.23-1.44-6.78-1.44-2.2 0-3.59-.13-4.35-.4-1.32-.46-3.98-2.31-5.28-3.67a3.97 3.97 0 0 0-1.16-.96c-.14 0-1.11.82-2.17 1.83-1.06 1-2.44 2.13-3.07 2.5-1.47.86-3.96 1.25-7.42 1.17-2.37-.06-2.87 0-3.8.5-.6.32-1.24.77-1.43 1-.43.52-.41.52-2-.3zm11.78-5.54c1.95-.58 4.4-3.02 5.3-5.27.58-1.43.63-1.93.58-5.16-.1-5.89.35-6.06-5.83 2.35a202.1 202.1 0 0 0-5.43 7.58c-.07.36 1.59.89 2.88.9.6.01 1.71-.17 2.5-.4zm20.26.12c.64-.16 1.24-.4 1.3-.51.14-.22-10.8-14.6-11.21-14.74-.35-.12-.57 6.46-.26 8.1.98 5.3 5.34 8.37 10.17 7.15zm-38.96.24c-1.08-1.12-1.08-1.14-.7-2.04.57-1.34.31-3.44-.8-6.58-1.46-4.12-1.27-6.37.91-10.7.44-.87.76-1.6.72-1.65-.05-.04-.68-.37-1.41-.74-2-1-4.53-2.96-5.42-4.19-.46-.63-1.2-2.38-1.74-4.13-.9-2.9-1.02-3.12-2.55-4.66-1.48-1.5-1.6-1.71-1.55-2.69.03-.58.14-1.2.24-1.36.12-.2 5.5 1.32 17.49 4.97 9.52 2.9 17.33 5.3 17.35 5.33.08.11-21.03 29.42-21.24 29.5-.12.03-.7-.44-1.3-1.06zm8.87-15.14c2.8-4 5.14-7.44 5.22-7.65.18-.49-5.2.88-7.18 1.83-3.47 1.65-5.82 5.72-5.3 9.17.17 1.15 1.56 3.91 1.97 3.91.13 0 2.5-3.27 5.3-7.26zm-.63-10.54c4.12-1.6 4.51-1.8 4.1-2.03C24.28 41.4 8 35.9 7.65 35.9c-.59 0-.1 3.26.72 4.76 2.22 4.08 6.91 5.25 12.41 3.1zm33.1 12.1C48.1 47.77 43.43 41.09 43.51 41c.18-.18 33.4-10.34 34.17-10.45.45-.06.55.12.69 1.25.15 1.29.13 1.34-.9 2.24-1.5 1.29-2.46 2.93-3.26 5.55-.38 1.24-.9 2.68-1.17 3.19-.81 1.58-3.28 3.62-6.08 5.02-.65.33-1.22.63-1.27.67-.05.04.24.71.63 1.48 2.39 4.72 2.54 6.6.93 11.26-1.16 3.34-1.29 4.45-.7 6.1l.37 1.07-1.11 1.09a8.77 8.77 0 0 1-1.25 1.09c-.08 0-4.88-6.62-10.67-14.7zm9.2 4.71a6.95 6.95 0 0 0 1.18-4.55c-.22-2.98-2.46-6.16-5.31-7.52-1.92-.92-7.43-2.36-7.25-1.9.25.66 10.33 14.96 10.54 14.96.11 0 .5-.44.85-.99zM66.52 44a7.61 7.61 0 0 0 4.36-6.43c.09-1.08.04-1.66-.15-1.66-.35 0-17.28 5.76-17.46 5.94-.07.07.16.24.5.37l2.94 1.2c3.11 1.3 3.97 1.48 6.32 1.37a8.25 8.25 0 0 0 3.49-.8zM41.83 18.4V.14l1.52.18a6 6 0 0 1 1.67.35c.09.1.3.66.47 1.26.44 1.56 1.1 2.27 3.74 4.08 4.06 2.78 5.01 4.23 5.97 9.04l.45 2.28 3.5-.14c4.38-.19 5.34.1 8.66 2.57 2.53 1.88 4.29 2.64 6.13 2.65 1.03 0 1.13.08 1.8 1.28l.7 1.28-1.23.4-17.3 5.85-16.08 5.44zm17.06 8.98c4.37-1.31 8.04-2.48 8.15-2.58.4-.36-1.51-2.46-2.99-3.3-1.31-.74-1.67-.81-3.7-.8-2.64 0-4 .54-6.06 2.4-1.1.98-4.79 6.26-4.79 6.84 0 .26.27.19 9.4-2.56zm-11.1-2.6c2.6-3.21 3.34-4.77 3.5-7.28a8.9 8.9 0 0 0-1.51-5.89c-.87-1.2-3.21-2.7-4.22-2.7h-.64l.17 3.22c.1 1.77.18 5.93.18 9.26 0 3.32.09 6.04.2 6.03.1-.01 1.15-1.2 2.31-2.64zm-28.19 6c-9.1-3.1-16.74-5.7-16.98-5.8-.42-.15-.4-.27.19-1.32.63-1.13.69-1.17 2.5-1.45 2.18-.33 3.35-.9 5.67-2.71 2.53-2 3.8-2.47 6.64-2.5 1.3 0 3.03.07 3.84.17l1.45.2.46-2.35c.58-3.01 1.38-5.13 2.34-6.22a26.7 26.7 0 0 1 3.28-2.65c2.95-2.1 3.75-2.97 4.17-4.55.2-.71.47-1.16.72-1.17.22 0 .97-.1 1.66-.22L36.8 0v18.21c0 14.4-.07 18.21-.33 18.2-.18 0-7.77-2.54-16.87-5.63zm9.53-.88c0-.55-3.65-5.76-4.77-6.81-3.71-3.47-8.59-3.53-11.76-.14-.66.7-1.2 1.4-1.2 1.55 0 .15.8.5 1.79.8l8.66 2.64c7.43 2.26 7.28 2.22 7.28 1.96zm4.23-12.01V8.61l-.6.19a7.66 7.66 0 0 0-4.97 4.58c-.8 2.12-.65 5.4.32 7.44.69 1.43 4.57 6.35 5.02 6.35.13 0 .23-4.18.23-9.28z"/>
</svg>
